Coordinates
version=1
nRows=6
nColumns=63
inDegrees=yes

Units are S.I. units (second, meters, Newtons, ...)
If the header above contains a line with 'inDegrees', this indicates whether rotational values are in degrees (yes) or radians (no).

endheader
time	pelvis_tilt	pelvis_list	pelvis_rotation	pelvis_tx	pelvis_ty	pelvis_tz	hip_flexion_r	hip_adduction_r	hip_rotation_r	knee_angle_r	knee_angle_r_beta	ankle_angle_r	subtalar_angle_r	mtp_angle_r	hip_flexion_l	hip_adduction_l	hip_rotation_l	knee_angle_l	knee_angle_l_beta	ankle_angle_l	subtalar_angle_l	mtp_angle_l	L5_S1_Flex_Ext	L5_S1_Lat_Bending	L5_S1_axial_rotation	L4_L5_Flex_Ext	L4_L5_Lat_Bending	L4_L5_axial_rotation	L3_L4_Flex_Ext	L3_L4_Lat_Bending	L3_L4_axial_rotation	L2_L3_Flex_Ext	L2_L3_Lat_Bending	L2_L3_axial_rotation	L1_L2_Flex_Ext	L1_L2_Lat_Bending	L1_L2_axial_rotation	L1_T12_Flex_Ext	L1_T12_Lat_Bending	L1_T12_axial_rotation	Abs_r3	Abs_r2	Abs_r1	Abs_t1	Abs_t2	neck_flexion	neck_bending	neck_rotation	arm_flex_r	arm_add_r	arm_rot_r	elbow_flex_r	pro_sup_r	wrist_flex_r	wrist_dev_r	arm_flex_l	arm_add_l	arm_rot_l	elbow_flex_l	pro_sup_l	wrist_flex_l	wrist_dev_l
      0.00000000	      5.87261551	     -4.10984350	     89.13744364	      0.31445844	      1.03726781	      0.42863080	      2.59600794	     -1.13143599	    -10.06507547	     10.57044379	      0.18448905	     22.61746781	     12.79281923	      0.00000000	      1.80670337	     -0.41684892	      3.62234644	      7.27849344	      0.12703368	     19.07467021	    -15.52773614	      0.00000000	      0.07289521	      0.31372772	      0.12687861	      0.13537369	      0.41725787	      0.13480853	      0.11975953	      0.76279758	      0.13480853	      0.08331193	      0.76279758	      0.11101879	      0.06769049	      0.63975357	      0.10308887	      0.04165232	      0.48596424	      0.09515896	      0.52068317	      3.54895072	      0.70566078	      0.00000000	      0.00000000	     24.26338246	     -8.35271194	      6.78448559	     11.34218093	    -13.05914081	     67.92302024	     53.07540560	     89.21412895	     -4.78622682	      4.80840161	     13.51367236	    -12.28190999	     60.84516049	     43.05655385	     67.15031133	      9.38980392	     -9.69444976
      0.01666667	      6.04461185	     -4.52130189	     89.71095154	      0.31373829	      1.03534394	      0.42903944	      2.91861695	     -0.90997610	     -9.29192962	     10.38445434	      0.18124292	     23.56898762	     11.84124948	      0.00000000	      2.01501814	     -0.57495428	      3.68963691	      6.91561423	      0.12070024	     19.55890049	    -14.61938062	      0.00000000	      0.11001245	      0.36072257	     -0.24133643	      0.20430413	      0.47976102	     -0.25641995	      0.18073946	      0.87706086	     -0.25641995	      0.12573323	      0.87706086	     -0.21116937	      0.10215757	      0.73558547	     -0.19608585	      0.06286112	      0.55875926	     -0.18100232	      0.78580796	      4.08056588	     -1.34224080	      0.00000000	      0.00000000	     25.96175976	     -7.49371656	      9.45580760	     12.93830891	    -12.53230131	     71.62595508	     52.06135886	     89.23659122	     -4.69636241	      2.45472146	      9.39992755	    -11.72280836	     49.44707214	     45.17151734	     69.06259934	     12.42359671	     -6.21281251
      0.03333333	      6.12191751	     -4.77544875	     90.32679681	      0.31311406	      1.03401578	      0.42970560	      3.11239920	     -0.82427022	     -9.00366283	     10.27376438	      0.17931102	     24.25655512	     11.36489016	      0.00000000	      2.17898701	     -0.65070620	      3.73629163	      6.68628374	      0.11669767	     19.90753213	    -13.68509713	      0.00000000	      0.13607723	      0.38669384	     -0.52888025	      0.25270902	      0.51430281	     -0.56193527	      0.22356128	      0.94020741	     -0.56193527	      0.15552267	      0.94020741	     -0.46277022	      0.12636132	      0.78854608	     -0.42971521	      0.07775453	      0.59898876	     -0.39666019	      0.97198605	      4.37435809	     -2.94147331	      0.00000000	      0.00000000	     26.70940663	     -6.62391029	     11.51845954	     14.27548943	    -12.06628121	     74.82239284	     51.28925686	     89.27687376	     -5.06983644	      0.93496668	      7.36146591	    -11.51416847	     44.60325283	     46.65351579	     68.55988091	     13.34630066	     -4.27188735
      0.05000000	      6.13757142	     -4.93858823	     90.76705907	      0.31281391	      1.03316576	      0.43058545	      3.24801370	     -0.79855402	     -8.88585097	     10.18699984	      0.17779669	     24.66281723	     10.99631687	      0.00000000	      2.29587789	     -0.67538607	      3.70669324	      6.51496309	      0.11370756	     20.14976493	    -12.98387236	      0.00000000	      0.15290362	      0.39587955	     -0.72985086	      0.28395731	      0.52651980	     -0.77546654	      0.25120535	      0.96254153	     -0.77546654	      0.17475354	      0.96254153	     -0.63861950	      0.14198630	      0.80727757	     -0.59300382	      0.08736913	      0.61321742	     -0.54738814	      1.09217524	      4.47826861	     -4.05921152	      0.00000000	      0.00000000	     26.95442152	     -6.14236379	     12.57425467	     15.55656736	    -11.58631963	     78.11772112	     50.45585327	     89.31577292	     -6.75383676	     -0.85918149	      6.05360315	    -11.37790681	     41.61444243	     47.51749833	     69.76694640	     14.29798089	     -3.06234392
      0.06666667	      6.09699959	     -5.05951396	     91.01607037	      0.31258874	      1.03261019	      0.43165306	      3.42528095	     -0.86834603	     -8.83610257	     10.23359252	      0.17860988	     24.94745985	     10.95322476	      0.00000000	      2.34912708	     -0.62858998	      3.85486246	      6.26047620	      0.10926592	     20.13471822	    -12.75577855	      0.00000000	      0.16598200	      0.39547260	     -0.77989537	      0.30824516	      0.52597856	     -0.82863883	      0.27269182	      0.96155208	     -0.82863883	      0.18970082	      0.96155208	     -0.68240845	      0.15413088	      0.80644773	     -0.63366499	      0.09484211	      0.61258706	     -0.58492153	      1.18559279	      4.47366515	     -4.33754406	      0.00000000	      0.00000000	     26.87851628	     -6.27910711	     12.60956582	     16.00190499	    -11.42539738	     79.14735593	     50.16335812	     89.36474155	     -6.87268470	     -0.94548797	      6.09149709	    -11.59203474	     42.14507366	     47.68463423	     70.40912984	     14.62799163	     -2.71544869
      0.08333333	      5.96045543	     -4.99775281	     91.56310005	      0.31229750	      1.03257381	      0.43285654	      3.34037562	     -1.01842440	     -9.14650911	     10.18832923	      0.17781989	     25.09377488	     10.87107850	      0.00000000	      2.41701346	     -0.49604281	      4.05870926	      6.33214319	      0.11051675	     20.08906534	    -12.41732408	      0.00000000	      0.14882363	      0.37510339	     -0.93572965	      0.27638036	      0.49888750	     -0.99421276	      0.24450234	      0.91202637	     -0.99421276	      0.17009053	      0.91202637	     -0.81876345	      0.13819762	      0.76491082	     -0.76028034	      0.08503782	      0.58103514	     -0.70179724	      1.06303230	      4.24324452	     -5.20424761	      0.00000000	      0.00000000	     26.61838502	     -6.00545163	     12.83841995	     17.25066227	    -10.85696255	     82.44562363	     49.20328929	     89.37598173	     -9.82009283	     -2.62512670	      6.13704384	    -11.85336986	     42.34217605	     47.49305258	     72.26664007	     15.67080618	     -2.71939351
